HIERARCHY
ROOT Hips
{
	OFFSET 0.000000 0.000000 0.000000
	CHANNELS 6 Xposition Yposition Zposition Xrotation Yrotation Zrotation
	JOINT LeftUpLeg_virtual
	{
		OFFSET 0.000000 0.000000 0.000000
		CHANNELS 3 Xrotation Yrotation Zrotation
		JOINT LeftUpLeg
		{
			OFFSET 11.394100 -6.187798 -0.413800
			CHANNELS 3 Xrotation Yrotation Zrotation
			JOINT LeftLeg
			{
				OFFSET 0.430247 -32.302673 3.732800
				CHANNELS 3 Xrotation Yrotation Zrotation
				JOINT LeftFoot
				{
					OFFSET -0.430247 -48.264931 -6.423300
					CHANNELS 3 Xrotation Yrotation Zrotation
					JOINT LeftToeBase
					{
						OFFSET 4.230900 -16.068199 23.438400
						CHANNELS 3 Xrotation Yrotation Zrotation
						JOINT LeftToe_End
						{
							OFFSET 4.510700 0.695400 19.974600
							CHANNELS 3 Xrotation Yrotation Zrotation
							End Site
							{
								OFFSET 0 0 0
							}
						}
					}
				}
			}
		}
	}
	JOINT RightUpLeg_virtual
	{
		OFFSET 0.000000 0.000000 0.000000
		CHANNELS 3 Xrotation Yrotation Zrotation
		JOINT RightUpLeg
		{
			OFFSET -11.333700 -6.187798 -0.413800
			CHANNELS 3 Xrotation Yrotation Zrotation
			JOINT RightLeg
			{
				OFFSET -0.430392 -32.302628 3.733000
				CHANNELS 3 Xrotation Yrotation Zrotation
				JOINT RightFoot
				{
					OFFSET 0.430392 -48.264973 -6.423500
					CHANNELS 3 Xrotation Yrotation Zrotation
					JOINT RightToeBase
					{
						OFFSET -4.230900 -16.068199 23.438400
						CHANNELS 3 Xrotation Yrotation Zrotation
						JOINT RightToe_End
						{
							OFFSET -4.510700 0.695400 19.974600
							CHANNELS 3 Xrotation Yrotation Zrotation
							End Site
							{
								OFFSET 0 0 0
							}
						}
					}
				}
			}
		}
	}
	JOINT Spine_virtual
	{
		OFFSET 0.000000 0.000000 0.000000
		CHANNELS 3 Xrotation Yrotation Zrotation
		JOINT Spine
		{
			OFFSET -0.002400 12.777504 0.315300
			CHANNELS 3 Xrotation Yrotation Zrotation
			JOINT Spine1
			{
				OFFSET -0.002067 5.816869 0.032633
				CHANNELS 3 Xrotation Yrotation Zrotation
				JOINT Spine1_split
				{
					OFFSET -0.002067 5.816869 0.032633
					CHANNELS 3 Xrotation Yrotation Zrotation
					JOINT Spine2
					{
						OFFSET -0.002067 5.816869 0.032633
						CHANNELS 3 Xrotation Yrotation Zrotation
						JOINT Neck_virtual
						{
							OFFSET 0.000000 0.000000 0.000000
							CHANNELS 3 Xrotation Yrotation Zrotation
							JOINT Neck
							{
								OFFSET -0.003700 21.199493 -0.826900
								CHANNELS 3 Xrotation Yrotation Zrotation
								JOINT Head
								{
									OFFSET 0.000000 20.442200 4.834800
									CHANNELS 3 Xrotation Yrotation Zrotation
									JOINT HeadTop_End
									{
										OFFSET 0.000000 34.668396 4.968400
										CHANNELS 3 Xrotation Yrotation Zrotation
										End Site
										{
											OFFSET 0 0 0
										}
									}
								}
							}
						}
						JOINT LeftShoulder_virtual
						{
							OFFSET 0.000000 0.000000 0.000000
							CHANNELS 3 Xrotation Yrotation Zrotation
							JOINT LeftShoulder
							{
								OFFSET 3.288150 8.794197 -1.372250
								CHANNELS 3 Xrotation Yrotation Zrotation
								JOINT LeftShoulder_split
								{
									OFFSET 3.288150 8.794197 -1.372250
									CHANNELS 3 Xrotation Yrotation Zrotation
									JOINT LeftArm
									{
										OFFSET 11.953299 -2.279007 -0.146200
										CHANNELS 3 Xrotation Yrotation Zrotation
										JOINT LeftForeArm
										{
											OFFSET 18.448900 0.000000 0.000000
											CHANNELS 3 Xrotation Yrotation Zrotation
											JOINT LeftHand
											{
												OFFSET 29.527798 0.000000 0.000000
												CHANNELS 3 Xrotation Yrotation Zrotation
												End Site
												{
													OFFSET 0 0 0
												}
											}
										}
									}
								}
							}
						}
						JOINT RightShoulder_virtual
						{
							OFFSET 0.000000 0.000000 0.000000
							CHANNELS 3 Xrotation Yrotation Zrotation
							JOINT RightShoulder
							{
								OFFSET -3.249400 8.794197 -1.372250
								CHANNELS 3 Xrotation Yrotation Zrotation
								JOINT RightShoulder_split
								{
									OFFSET -3.249400 8.794197 -1.372250
									CHANNELS 3 Xrotation Yrotation Zrotation
									JOINT RightArm
									{
										OFFSET -11.953299 -2.279007 -0.146200
										CHANNELS 3 Xrotation Yrotation Zrotation
										JOINT RightForeArm
										{
											OFFSET -18.448900 0.000000 0.000000
											CHANNELS 3 Xrotation Yrotation Zrotation
											JOINT RightHand
											{
												OFFSET -29.527802 0.000000 0.000000
												CHANNELS 3 Xrotation Yrotation Zrotation
												End Site
												{
													OFFSET 0 0 0
												}
											}
										}
									}
								}
							}
						}
					}
				}
			}
		}
	}
}
MOTION
Frames: 7
Frame Time: 0.03333333
0.909179 80.682274 -8.708776 0.000000 0.000000 0.000000 3.812158 -77.614800 4.521455 -48.961941 15.819043 47.997163 33.392006 -15.845648 0.720549 18.620716 15.543204 -36.528002 -1.184027 -5.820106 -6.882970 0.000000 0.000000 0.000000 2.842236 -77.993288 3.388857 -38.491637 5.119573 -17.868188 48.720842 16.251064 -9.215210 -10.167880 -9.083916 33.268547 2.205437 9.256030 -14.691168 0.000000 0.000000 0.000000 5.087484 -72.897544 4.556981 0.192849 4.254006 2.010042 5.171020 0.086116 -2.899062 0.180196 -0.872178 0.198270 0.000000 0.000000 0.000000 10.482936 1.772619 -1.702289 -14.120571 22.480359 10.747990 16.534730 -9.983591 -10.960197 0.000000 0.000000 0.000000 9.869003 -0.216361 -1.427867 4.464970 -0.860260 -6.368865 4.481022 -7.503968 -3.606241 -64.154451 -14.377400 -14.057536 9.108607 -11.834662 13.058997 0.000000 0.000000 0.000000 6.509484 -0.709481 -1.799772 -5.191301 16.668819 2.657919 13.239118 -0.141924 8.103287 -12.389488 68.705597 25.018643 112.752572 76.771900 -112.461278 0.000000 0.000000 0.000000 
0.945346 80.657707 -8.684370 0.000000 0.000000 0.000000 5.362445 -77.583852 5.766867 -48.063980 15.679696 47.957302 33.992041 -16.346605 0.868446 17.838685 15.730515 -36.196085 -1.505756 -5.866044 -6.647638 0.000000 0.000000 0.000000 3.257742 -77.562829 3.775026 -38.965563 5.300798 -17.887670 48.200153 16.334546 -8.961463 -9.856238 -9.045669 33.288897 1.686192 9.455745 -14.696351 0.000000 0.000000 0.000000 5.669280 -72.914715 5.359997 -0.324300 4.131613 2.014162 4.776939 -0.036769 -2.847887 0.100430 -0.749997 0.205635 0.000000 0.000000 0.000000 10.210472 1.504628 -1.387966 -13.210056 22.780542 10.591814 16.523652 -10.390922 -12.221158 0.000000 0.000000 0.000000 9.089083 -0.278695 -1.463060 4.504709 0.100847 -8.242022 5.224177 -6.750749 -3.093344 -63.500132 -14.218616 -15.388606 10.193136 -12.049029 13.732003 0.000000 0.000000 0.000000 6.081122 -0.876981 -1.863707 -5.401138 16.467164 2.601969 13.355801 -2.184080 7.321672 -13.836206 68.552198 27.169418 115.373261 76.968111 -115.369818 0.000000 0.000000 0.000000 
0.831051 80.918579 -8.714685 0.000000 0.000000 0.000000 7.379587 -77.801831 7.598170 -46.922112 15.549916 47.696396 34.197258 -16.398166 0.990653 17.670384 16.312107 -36.370149 -1.826353 -5.827802 -6.777823 0.000000 0.000000 0.000000 4.564450 -77.410318 5.065369 -39.789957 5.269821 -18.008608 47.513333 16.416115 -8.609239 -9.236022 -8.427761 32.890551 2.367748 9.616333 -15.099373 0.000000 0.000000 0.000000 6.268518 -73.372529 6.108097 -0.938469 4.092000 2.000924 4.522166 -0.194275 -2.644810 0.110570 -0.657136 0.169147 0.000000 0.000000 0.000000 9.953440 1.177349 -0.943121 -12.110991 23.046040 10.448694 14.445599 -9.082946 -15.052053 0.000000 0.000000 0.000000 8.097952 -0.400245 -1.426080 4.370183 0.620413 -10.842421 5.688337 -6.343779 -1.554003 -60.803225 -13.314771 -17.329131 10.802144 -13.691358 13.821717 0.000000 0.000000 0.000000 5.706827 -1.044732 -1.710393 -5.737852 15.124125 2.582056 12.469362 -3.027881 6.464677 -12.775684 68.415327 27.916395 110.126815 78.072976 -110.059305 0.000000 0.000000 0.000000 
0.594603 81.516457 -8.727201 0.000000 0.000000 0.000000 9.252531 -78.181535 9.485628 -45.183228 15.661948 46.925049 33.356359 -15.855949 0.985004 17.868820 17.358523 -36.755529 -2.310641 -5.714725 -7.072060 0.000000 0.000000 0.000000 6.137341 -77.476700 6.724010 -40.537029 4.996066 -18.246886 46.730273 16.319878 -8.226365 -8.513344 -7.500180 32.274543 3.885864 9.724727 -15.807892 0.000000 0.000000 0.000000 6.794078 -74.037393 6.695112 -1.405121 4.123608 1.966646 4.412668 -0.398357 -2.310949 0.167008 -0.595595 0.134066 0.000000 0.000000 0.000000 9.652479 0.819556 -0.478234 -10.948053 23.183771 10.230933 10.918837 -6.318321 -18.724255 0.000000 0.000000 0.000000 7.194146 -0.581188 -1.364119 4.158015 0.378362 -13.779854 6.091158 -6.385392 0.608938 -56.331507 -12.319178 -19.882763 11.330131 -17.743641 13.702689 0.000000 0.000000 0.000000 5.453784 -1.201951 -1.399533 -6.174855 12.871678 2.894622 11.091840 -2.256100 5.600042 -10.069774 68.032625 28.175034 94.373038 79.522793 -93.825298 0.000000 0.000000 0.000000 
0.236500 82.437546 -8.617712 0.000000 0.000000 0.000000 10.519133 -78.369591 10.959272 -42.630564 16.107831 45.470420 31.530448 -14.824552 1.044509 18.078568 18.882840 -37.144898 -2.680049 -5.565189 -7.478804 0.000000 0.000000 0.000000 7.149237 -77.551238 8.060101 -40.758942 4.468840 -18.577100 45.758354 15.962770 -7.873611 -7.551418 -6.515934 31.849691 4.558943 9.961839 -16.658918 0.000000 0.000000 0.000000 6.656784 -74.595132 6.624638 -1.520630 4.171101 1.925338 4.443730 -0.674992 -1.888377 0.202464 -0.593143 0.122080 0.000000 0.000000 0.000000 9.266875 0.451185 -0.069513 -9.701999 23.175658 9.849693 6.945928 -2.709842 -22.292631 0.000000 0.000000 0.000000 6.565065 -0.834702 -1.329529 3.825424 -0.865938 -16.504157 7.373939 -6.492119 2.588739 -50.217265 -11.897806 -22.694277 12.232509 -24.273891 13.747210 0.000000 0.000000 0.000000 5.374372 -1.346987 -1.008869 -6.660005 9.950575 3.684686 9.599470 -0.561517 4.870525 -6.805550 67.390212 28.458299 64.330260 79.327511 -62.932181 0.000000 0.000000 0.000000 
-0.120144 83.511810 -8.510740 0.000000 0.000000 0.000000 10.499055 -78.072641 11.309040 -40.059118 16.564857 43.566416 29.069278 -13.630814 1.346383 18.291714 20.283604 -37.763460 -2.542702 -5.414455 -7.904151 0.000000 0.000000 0.000000 7.611701 -77.354816 8.990196 -40.107871 3.844959 -18.872989 44.472991 15.312955 -7.574653 -6.425161 -5.737811 31.810336 3.819232 10.390624 -17.474528 0.000000 0.000000 0.000000 5.878684 -74.808753 6.045053 -1.210414 4.148833 1.861219 4.574028 -1.034081 -1.427486 0.201401 -0.684445 0.085843 0.000000 0.000000 0.000000 8.854509 0.066834 0.233866 -8.371717 23.021521 9.287845 2.987029 1.019265 -24.949040 0.000000 0.000000 0.000000 6.330803 -1.180409 -1.332983 3.393204 -2.935516 -18.364700 8.894119 -6.227733 3.917276 -43.503264 -13.323923 -25.336959 14.007956 -32.968452 14.377270 0.000000 0.000000 0.000000 5.511612 -1.518594 -0.595954 -7.103743 6.780174 5.097161 7.941988 0.871896 4.126196 -4.008803 66.429607 29.092559 35.951268 74.812688 -33.420341 0.000000 0.000000 0.000000 
-0.300720 84.613716 -8.322248 0.000000 0.000000 0.000000 9.354002 -77.275114 10.667611 -38.366091 16.908085 41.795683 26.335003 -12.704600 1.835299 18.875824 20.728519 -38.959976 -2.050169 -5.359445 -8.362287 0.000000 0.000000 0.000000 7.508822 -76.759483 9.372631 -38.537177 3.287195 -19.060292 42.782495 14.322655 -7.285753 -5.437176 -5.474797 31.846300 2.995835 10.771698 -17.929890 0.000000 0.000000 0.000000 4.691810 -74.554383 5.342106 -0.530545 3.903369 1.754848 4.729772 -1.505362 -0.981640 0.126045 -0.863347 0.037020 0.000000 0.000000 0.000000 8.481026 -0.342513 0.422276 -6.834036 22.774859 8.472727 -0.552719 4.249856 -26.375095 0.000000 0.000000 0.000000 6.467295 -1.635957 -1.321913 2.859813 -5.649579 -18.593875 9.625641 -5.698925 3.300167 -37.317644 -17.432856 -26.849096 17.014080 -43.326933 16.187449 0.000000 0.000000 0.000000 5.757280 -1.752768 -0.171496 -7.392747 3.910486 6.969943 6.084657 1.540180 4.024316 -2.126635 65.040558 29.950236 21.497822 66.735285 -17.771015 0.000000 0.000000 0.000000 
